<svg width="30" height="30" viewBox="0 0 30 30" fill="none" xmlns="http://www.w3.org/2000/svg">
<g clip-path="url(#clip0)">
<path d="M28.011 29.0139L25.7309 7.30063C25.6831 6.84607 25.2999 6.50092 24.8428 6.50092H20.5573V5.52382C20.5573 2.4781 18.0792 0 15.0334 0C11.9875 0 9.50938 2.4781 9.50938 5.52382V6.50092H5.22381C4.76673 6.50092 4.38358 6.84607 4.33575 7.30063L2.05563 29.0139C2.02931 29.2655 2.11102 29.5165 2.28016 29.7047C2.44953 29.8926 2.69077 29.9999 2.94369 29.9999H27.1227C27.3759 29.9999 27.6171 29.8926 27.7862 29.7047C27.9558 29.5165 28.0373 29.2655 28.011 29.0139ZM11.2951 5.52382C11.2951 3.46275 12.9721 1.78573 15.0334 1.78573C17.0945 1.78573 18.7715 3.46275 18.7715 5.52382V6.50092H11.2951V5.52382ZM3.9352 28.2142L6.02787 8.28665H9.50938V10.2543C9.50938 10.7474 9.90924 11.1472 10.4022 11.1472C10.8953 11.1472 11.2951 10.7474 11.2951 10.2543V8.28665H18.7715V10.2543C18.7715 10.7474 19.1714 11.1472 19.6644 11.1472C20.1574 11.1472 20.5573 10.7474 20.5573 10.2543V8.28665H24.0388L26.1314 28.2142H3.9352Z" fill="#1964B0"/>
</g>
<defs>
<clipPath id="clip0">
<rect width="30" height="30" fill="white"/>
</clipPath>
</defs>
</svg>
