<svg height="469.33333pt" viewBox="0 0 469.33333 469.33333" width="469.33333pt" xmlns="http://www.w3.org/2000/svg"><path d="m277.332031 128h-80c-8.832031 0-16 7.167969-16 16v133.332031h-37.332031c-8.832031 0-16 7.167969-16 16s7.167969 16 16 16h37.332031v16c0 8.832031 7.167969 16 16 16s16-7.167969 16-16v-16h48c8.832031 0 16-7.167969 16-16s-7.167969-16-16-16h-48v-21.332031h64c35.285157 0 64-28.714844 64-64s-28.714843-64-64-64zm0 96h-64v-64h64c17.644531 0 32 14.355469 32 32s-14.355469 32-32 32zm0 0"/><path d="m234.667969 0c-129.386719 0-234.667969 105.28125-234.667969 234.667969s105.28125 234.664062 234.667969 234.664062 234.664062-105.277343 234.664062-234.664062-105.277343-234.667969-234.664062-234.667969zm0 437.332031c-111.746094 0-202.667969-90.921875-202.667969-202.664062 0-111.746094 90.921875-202.667969 202.667969-202.667969 111.742187 0 202.664062 90.921875 202.664062 202.667969 0 111.742187-90.921875 202.664062-202.664062 202.664062zm0 0"/></svg>