<svg width="20" height="20" viewBox="0 0 20 20" fill="none" xmlns="http://www.w3.org/2000/svg">
<g clip-path="url(#clip0)">
<path d="M14.3744 20C13.7288 20 13.0886 19.8859 12.4627 19.6585C9.70505 18.6567 7.14539 17.0251 5.06032 14.9401C2.97525 12.8551 1.34368 10.2954 0.341959 7.53774C0.0200578 6.65152 -0.0749383 5.73672 0.0597046 4.81863C0.185832 3.95867 0.518944 3.12382 1.02306 2.40432C1.52941 1.68165 2.20446 1.08058 2.97521 0.666105C3.79713 0.224131 4.69424 0 5.6417 0C5.93638 0 6.19105 0.20589 6.25281 0.494003L7.23379 5.0719C7.2782 5.2792 7.21449 5.49489 7.06461 5.64481L5.38839 7.32099C6.96966 10.4648 9.53549 13.0307 12.6793 14.6119L14.3555 12.9357C14.5054 12.7858 14.7212 12.7222 14.9284 12.7665L19.5063 13.7475C19.7945 13.8093 20.0003 14.064 20.0003 14.3586C20.0003 15.3061 19.7762 16.2032 19.3342 17.0252C18.9197 17.7959 18.3186 18.471 17.596 18.9773C16.8765 19.4814 16.0417 19.8145 15.1817 19.9407C14.9122 19.9802 14.6427 20 14.3744 20V20ZM5.14235 1.27729C3.89259 1.41525 2.78334 2.07031 2.04673 3.12163C1.21841 4.30381 1.02525 5.75785 1.51679 7.111C3.44265 12.4126 7.58783 16.5578 12.8894 18.4836C14.2425 18.9752 15.6966 18.782 16.8788 17.9537C17.9301 17.2171 18.5852 16.1078 18.7231 14.8581L14.999 14.06L13.2485 15.8106C13.0622 15.9969 12.7791 16.0464 12.5408 15.9343C8.82259 14.1875 5.81287 11.1778 4.06606 7.45962C3.95408 7.22123 4.00353 6.93819 4.18981 6.75195L5.94036 5.0014L5.14235 1.27729Z" fill="#1964B0"/>
</g>
<defs>
<clipPath id="clip0">
<rect width="20" height="20" fill="white"/>
</clipPath>
</defs>
</svg>
