<svg width="20" height="20" viewBox="0 0 20 20" fill="none" xmlns="http://www.w3.org/2000/svg">
<path d="M9.99998 0C4.47715 0 0 4.47715 0 9.99998C0 15.5228 4.47715 20 9.99998 20C15.5228 20 20 15.5228 20 9.99998C19.9941 4.47961 15.5204 0.00590122 9.99998 0ZM9.99998 18.5714C5.26611 18.5714 1.42856 14.7338 1.42856 9.99998C1.42856 5.26611 5.26611 1.42856 9.99998 1.42856C14.7338 1.42856 18.5714 5.26611 18.5714 9.99998C18.5663 14.7318 14.7318 18.5663 9.99998 18.5714Z" fill="#1964B0"/>
<path d="M9.99998 3.57141C9.60548 3.57141 9.28568 3.89121 9.28568 4.28571V9.28572H4.28571C3.89121 9.28572 3.57141 9.60552 3.57141 10C3.57141 10.3945 3.89121 10.7143 4.28571 10.7143H9.99998C10.3945 10.7143 10.7143 10.3945 10.7143 9.99998V4.28571C10.7143 3.89121 10.3945 3.57141 9.99998 3.57141Z" fill="#1964B0"/>
</svg>
