<svg width="20" height="20" viewBox="0 0 20 20" fill="none" xmlns="http://www.w3.org/2000/svg">
<path d="M18.3644 2.45469C17.33 1.34277 15.8804 0.710103 14.3617 0.707758C12.8417 0.709517 11.3906 1.34185 10.3546 2.45398L10.0015 2.8271L9.64836 2.45398C7.59251 0.24132 4.13215 0.11425 1.91953 2.1701C1.82148 2.26124 1.72679 2.35589 1.63565 2.45398C-0.545218 4.80631 -0.545218 8.44174 1.63565 10.7941L9.48255 19.0691C9.75403 19.3557 10.2064 19.368 10.493 19.0965C10.5024 19.0876 10.5115 19.0785 10.5204 19.0691L18.3645 10.7941C20.5452 8.44199 20.5452 4.80678 18.3644 2.45469ZM17.3302 9.80981H17.3294L10.0015 17.5388L2.67282 9.80981C1.00676 8.01241 1.00676 5.23493 2.67282 3.43753C4.1858 1.79769 6.74172 1.69487 8.38156 3.20785C8.46118 3.28131 8.53778 3.35792 8.61124 3.43753L9.48255 4.35676C9.76969 4.64205 10.2333 4.64205 10.5204 4.35676L11.3917 3.43824C12.9047 1.7984 15.4606 1.69558 17.1005 3.20856C17.1801 3.28203 17.2567 3.35863 17.3302 3.43824C19.0107 5.23849 19.023 8.02104 17.3302 9.80981Z" fill="#1964B0"/>
</svg>
